<svg xmlns="http://www.w3.org/2000/svg" xmlns:xlink="http://www.w3.org/1999/xlink" width="500" zoomAndPan="magnify" viewBox="0 0 375 374.999991" height="500" preserveAspectRatio="xMidYMid meet" version="1.0"><defs><g/></defs><g fill="#e6e6dd" fill-opacity="1"><g transform="translate(60.099452, 188.297908)"><g><path d="M 2.171875 -66.078125 L 17.46875 -66.078125 C 16.894531 -65.078125 16.453125 -64.101562 16.140625 -63.15625 C 15.828125 -62.207031 15.625 -61.070312 15.53125 -59.75 C 15.4375 -58.4375 15.390625 -56.707031 15.390625 -54.5625 L 15.390625 -44.75 L 27.09375 -44.75 L 27.09375 -54.5625 C 27.09375 -56.707031 27.046875 -58.4375 26.953125 -59.75 C 26.859375 -61.070312 26.671875 -62.207031 26.390625 -63.15625 C 26.109375 -64.101562 25.648438 -65.078125 25.015625 -66.078125 L 40.3125 -66.078125 C 39.488281 -64.566406 38.9375 -63.054688 38.65625 -61.546875 C 38.375 -60.035156 38.234375 -57.707031 38.234375 -54.5625 L 38.234375 -11.515625 C 38.234375 -8.367188 38.375 -6.039062 38.65625 -4.53125 C 38.9375 -3.019531 39.488281 -1.507812 40.3125 0 L 25.015625 0 C 25.648438 -1.007812 26.109375 -1.984375 26.390625 -2.921875 C 26.671875 -3.867188 26.859375 -5.019531 26.953125 -6.375 C 27.046875 -7.726562 27.09375 -9.441406 27.09375 -11.515625 L 27.09375 -40.96875 L 15.390625 -40.96875 L 15.390625 -11.515625 C 15.390625 -9.441406 15.4375 -7.726562 15.53125 -6.375 C 15.625 -5.019531 15.828125 -3.867188 16.140625 -2.921875 C 16.453125 -1.984375 16.894531 -1.007812 17.46875 0 L 2.171875 0 C 3.054688 -1.507812 3.625 -3.019531 3.875 -4.53125 C 4.125 -6.039062 4.25 -8.367188 4.25 -11.515625 L 4.25 -54.5625 C 4.25 -57.707031 4.125 -60.035156 3.875 -61.546875 C 3.625 -63.054688 3.054688 -64.566406 2.171875 -66.078125 Z M 2.171875 -66.078125 "/></g></g></g><g fill="#e6e6dd" fill-opacity="1"><g transform="translate(97.765748, 188.297908)"><g><path d="M 1.03125 0 C 1.476562 -0.820312 1.9375 -1.90625 2.40625 -3.25 C 2.875 -4.601562 3.332031 -6.601562 3.78125 -9.25 C 4.46875 -13.09375 5.21875 -17.265625 6.03125 -21.765625 C 6.851562 -26.265625 7.671875 -30.78125 8.484375 -35.3125 C 9.304688 -39.84375 10.078125 -44.085938 10.796875 -48.046875 C 11.523438 -52.015625 12.113281 -55.351562 12.5625 -58.0625 C 12.875 -59.945312 13.015625 -61.582031 12.984375 -62.96875 C 12.953125 -64.351562 12.679688 -65.390625 12.171875 -66.078125 L 25.484375 -66.078125 C 24.984375 -65.390625 24.71875 -64.351562 24.6875 -62.96875 C 24.65625 -61.582031 24.796875 -59.945312 25.109375 -58.0625 C 25.617188 -55.351562 26.234375 -52.015625 26.953125 -48.046875 C 27.671875 -44.085938 28.425781 -39.84375 29.21875 -35.3125 C 30.007812 -30.78125 30.8125 -26.265625 31.625 -21.765625 C 32.445312 -17.265625 33.203125 -13.09375 33.890625 -9.25 C 34.390625 -6.601562 34.890625 -4.601562 35.390625 -3.25 C 35.898438 -1.90625 36.375 -0.820312 36.8125 0 L 21.4375 0 C 22.125 -1.320312 22.53125 -2.722656 22.65625 -4.203125 C 22.78125 -5.679688 22.71875 -7.175781 22.46875 -8.6875 C 22.34375 -9.625 22.1875 -10.582031 22 -11.5625 C 21.8125 -12.539062 21.65625 -13.53125 21.53125 -14.53125 L 9.0625 -14.53125 C 8.875 -13.53125 8.703125 -12.539062 8.546875 -11.5625 C 8.390625 -10.582031 8.25 -9.625 8.125 -8.6875 C 7.863281 -7.175781 7.8125 -5.679688 7.96875 -4.203125 C 8.132812 -2.722656 8.53125 -1.320312 9.15625 0 Z M 9.625 -18.3125 L 20.953125 -18.3125 C 20.265625 -22.59375 19.570312 -26.828125 18.875 -31.015625 C 18.1875 -35.203125 17.539062 -39.117188 16.9375 -42.765625 C 16.34375 -46.410156 15.796875 -49.492188 15.296875 -52.015625 C 14.859375 -49.492188 14.320312 -46.410156 13.6875 -42.765625 C 13.0625 -39.117188 12.398438 -35.203125 11.703125 -31.015625 C 11.015625 -26.828125 10.320312 -22.59375 9.625 -18.3125 Z M 9.625 -18.3125 "/></g></g></g><g fill="#e6e6dd" fill-opacity="1"><g transform="translate(130.711889, 188.297908)"><g><path d="M 2.265625 -66.078125 L 17.5625 -66.078125 C 16.738281 -64.566406 16.1875 -63.054688 15.90625 -61.546875 C 15.625 -60.035156 15.484375 -57.707031 15.484375 -54.5625 L 15.484375 -3.203125 C 19.890625 -3.203125 23.238281 -3.816406 25.53125 -5.046875 C 27.832031 -6.273438 29.5 -8.226562 30.53125 -10.90625 C 31.570312 -13.582031 32.378906 -17.054688 32.953125 -21.328125 L 34.078125 -21.328125 L 34.078125 0 L 2.265625 0 C 3.148438 -1.507812 3.71875 -3.019531 3.96875 -4.53125 C 4.21875 -6.039062 4.34375 -8.367188 4.34375 -11.515625 L 4.34375 -54.5625 C 4.34375 -57.707031 4.21875 -60.035156 3.96875 -61.546875 C 3.71875 -63.054688 3.148438 -64.566406 2.265625 -66.078125 Z M 2.265625 -66.078125 "/></g></g></g><g fill="#e6e6dd" fill-opacity="1"><g transform="translate(163.091607, 188.297908)"><g><path d="M 2.265625 -66.078125 L 17.5625 -66.078125 C 16.738281 -64.566406 16.1875 -63.054688 15.90625 -61.546875 C 15.625 -60.035156 15.484375 -57.707031 15.484375 -54.5625 L 15.484375 -3.203125 C 19.890625 -3.203125 23.238281 -3.816406 25.53125 -5.046875 C 27.832031 -6.273438 29.5 -8.226562 30.53125 -10.90625 C 31.570312 -13.582031 32.378906 -17.054688 32.953125 -21.328125 L 34.078125 -21.328125 L 34.078125 0 L 2.265625 0 C 3.148438 -1.507812 3.71875 -3.019531 3.96875 -4.53125 C 4.21875 -6.039062 4.34375 -8.367188 4.34375 -11.515625 L 4.34375 -54.5625 C 4.34375 -57.707031 4.21875 -60.035156 3.96875 -61.546875 C 3.71875 -63.054688 3.148438 -64.566406 2.265625 -66.078125 Z M 2.265625 -66.078125 "/></g></g></g><g fill="#e6e6dd" fill-opacity="1"><g transform="translate(195.471331, 188.297908)"><g><path d="M 7.265625 0 C 7.578125 -1.382812 7.75 -3.492188 7.78125 -6.328125 C 7.8125 -9.160156 7.75 -12.414062 7.59375 -16.09375 C 7.4375 -19.78125 7.1875 -23.679688 6.84375 -27.796875 C 6.5 -31.921875 6.101562 -36.03125 5.65625 -40.125 C 5.21875 -44.21875 4.75 -48.023438 4.25 -51.546875 C 3.75 -55.066406 3.210938 -58.117188 2.640625 -60.703125 C 2.078125 -63.285156 1.539062 -65.078125 1.03125 -66.078125 L 16.140625 -66.078125 C 15.703125 -64.503906 15.4375 -62.097656 15.34375 -58.859375 C 15.25 -55.617188 15.28125 -51.921875 15.4375 -47.765625 C 15.59375 -43.609375 15.796875 -39.375 16.046875 -35.0625 C 16.296875 -30.757812 16.5625 -26.75 16.84375 -23.03125 C 17.132812 -19.320312 17.375 -16.269531 17.5625 -13.875 C 17.75 -15.320312 18 -17.398438 18.3125 -20.109375 C 18.625 -22.816406 18.984375 -25.914062 19.390625 -29.40625 C 19.804688 -32.894531 20.203125 -36.476562 20.578125 -40.15625 C 20.953125 -43.84375 21.28125 -47.414062 21.5625 -50.875 C 21.851562 -54.34375 22.015625 -57.414062 22.046875 -60.09375 C 22.078125 -62.769531 21.96875 -64.765625 21.71875 -66.078125 L 37 -66.078125 C 36.625 -64.066406 36.5 -61.296875 36.625 -57.765625 C 36.75 -54.242188 37.03125 -50.1875 37.46875 -45.59375 C 37.914062 -41 38.421875 -36.007812 38.984375 -30.625 C 39.554688 -25.25 40.125 -19.726562 40.6875 -14.0625 C 40.75 -15.507812 40.90625 -17.617188 41.15625 -20.390625 C 41.40625 -23.160156 41.6875 -26.304688 42 -29.828125 C 42.320312 -33.359375 42.59375 -36.976562 42.8125 -40.6875 C 43.03125 -44.40625 43.1875 -47.976562 43.28125 -51.40625 C 43.375 -54.832031 43.328125 -57.835938 43.140625 -60.421875 C 42.953125 -63.003906 42.546875 -64.890625 41.921875 -66.078125 L 52.578125 -66.078125 C 51.828125 -65.015625 51.101562 -63.207031 50.40625 -60.65625 C 49.71875 -58.101562 49.054688 -55.066406 48.421875 -51.546875 C 47.796875 -48.023438 47.226562 -44.21875 46.71875 -40.125 C 46.21875 -36.03125 45.78125 -31.921875 45.40625 -27.796875 C 45.03125 -23.679688 44.765625 -19.78125 44.609375 -16.09375 C 44.453125 -12.414062 44.390625 -9.160156 44.421875 -6.328125 C 44.453125 -3.492188 44.59375 -1.382812 44.84375 0 L 31.15625 0 C 31.34375 -1.695312 31.34375 -4.054688 31.15625 -7.078125 C 30.96875 -10.097656 30.648438 -13.476562 30.203125 -17.21875 C 29.765625 -20.96875 29.257812 -24.859375 28.6875 -28.890625 C 28.125 -32.921875 27.578125 -36.820312 27.046875 -40.59375 C 26.515625 -44.375 26.054688 -47.773438 25.671875 -50.796875 C 25.296875 -47.773438 24.890625 -44.375 24.453125 -40.59375 C 24.015625 -36.820312 23.554688 -32.921875 23.078125 -28.890625 C 22.609375 -24.859375 22.195312 -20.96875 21.84375 -17.21875 C 21.5 -13.476562 21.234375 -10.097656 21.046875 -7.078125 C 20.859375 -4.054688 20.828125 -1.695312 20.953125 0 Z M 7.265625 0 "/></g></g></g><g fill="#e6e6dd" fill-opacity="1"><g transform="translate(244.277188, 188.297908)"><g><path d="M 1.03125 0 C 1.476562 -0.820312 1.9375 -1.90625 2.40625 -3.25 C 2.875 -4.601562 3.332031 -6.601562 3.78125 -9.25 C 4.46875 -13.09375 5.21875 -17.265625 6.03125 -21.765625 C 6.851562 -26.265625 7.671875 -30.78125 8.484375 -35.3125 C 9.304688 -39.84375 10.078125 -44.085938 10.796875 -48.046875 C 11.523438 -52.015625 12.113281 -55.351562 12.5625 -58.0625 C 12.875 -59.945312 13.015625 -61.582031 12.984375 -62.96875 C 12.953125 -64.351562 12.679688 -65.390625 12.171875 -66.078125 L 25.484375 -66.078125 C 24.984375 -65.390625 24.71875 -64.351562 24.6875 -62.96875 C 24.65625 -61.582031 24.796875 -59.945312 25.109375 -58.0625 C 25.617188 -55.351562 26.234375 -52.015625 26.953125 -48.046875 C 27.671875 -44.085938 28.425781 -39.84375 29.21875 -35.3125 C 30.007812 -30.78125 30.8125 -26.265625 31.625 -21.765625 C 32.445312 -17.265625 33.203125 -13.09375 33.890625 -9.25 C 34.390625 -6.601562 34.890625 -4.601562 35.390625 -3.25 C 35.898438 -1.90625 36.375 -0.820312 36.8125 0 L 21.4375 0 C 22.125 -1.320312 22.53125 -2.722656 22.65625 -4.203125 C 22.78125 -5.679688 22.71875 -7.175781 22.46875 -8.6875 C 22.34375 -9.625 22.1875 -10.582031 22 -11.5625 C 21.8125 -12.539062 21.65625 -13.53125 21.53125 -14.53125 L 9.0625 -14.53125 C 8.875 -13.53125 8.703125 -12.539062 8.546875 -11.5625 C 8.390625 -10.582031 8.25 -9.625 8.125 -8.6875 C 7.863281 -7.175781 7.8125 -5.679688 7.96875 -4.203125 C 8.132812 -2.722656 8.53125 -1.320312 9.15625 0 Z M 9.625 -18.3125 L 20.953125 -18.3125 C 20.265625 -22.59375 19.570312 -26.828125 18.875 -31.015625 C 18.1875 -35.203125 17.539062 -39.117188 16.9375 -42.765625 C 16.34375 -46.410156 15.796875 -49.492188 15.296875 -52.015625 C 14.859375 -49.492188 14.320312 -46.410156 13.6875 -42.765625 C 13.0625 -39.117188 12.398438 -35.203125 11.703125 -31.015625 C 11.015625 -26.828125 10.320312 -22.59375 9.625 -18.3125 Z M 9.625 -18.3125 "/></g></g></g><g fill="#e6e6dd" fill-opacity="1"><g transform="translate(277.223332, 188.297908)"><g><path d="M 13.21875 -24.453125 C 12.78125 -26.148438 12.210938 -28.507812 11.515625 -31.53125 C 10.828125 -34.550781 10.054688 -37.820312 9.203125 -41.34375 C 8.359375 -44.875 7.460938 -48.335938 6.515625 -51.734375 C 5.566406 -55.128906 4.617188 -58.117188 3.671875 -60.703125 C 2.734375 -63.285156 1.851562 -65.078125 1.03125 -66.078125 L 17.84375 -66.078125 C 17.019531 -62.929688 16.8125 -59.453125 17.21875 -55.640625 C 17.632812 -51.835938 18.34375 -47.828125 19.34375 -43.609375 C 20.351562 -39.398438 21.332031 -35.03125 22.28125 -30.5 C 23.289062 -35.03125 24.28125 -39.398438 25.25 -43.609375 C 26.226562 -47.828125 26.921875 -51.835938 27.328125 -55.640625 C 27.734375 -59.453125 27.5 -62.929688 26.625 -66.078125 L 36.625 -66.078125 C 35.8125 -65.078125 34.929688 -63.285156 33.984375 -60.703125 C 33.035156 -58.117188 32.085938 -55.128906 31.140625 -51.734375 C 30.203125 -48.335938 29.304688 -44.875 28.453125 -41.34375 C 27.609375 -37.820312 26.835938 -34.566406 26.140625 -31.578125 C 25.453125 -28.585938 24.921875 -26.242188 24.546875 -24.546875 C 24.546875 -23.347656 24.546875 -21.945312 24.546875 -20.34375 C 24.546875 -18.738281 24.546875 -17.164062 24.546875 -15.625 C 24.546875 -14.082031 24.546875 -12.742188 24.546875 -11.609375 C 24.546875 -8.460938 24.6875 -6.117188 24.96875 -4.578125 C 25.25 -3.035156 25.800781 -1.507812 26.625 0 L 11.140625 0 C 12.023438 -1.507812 12.59375 -3.035156 12.84375 -4.578125 C 13.09375 -6.117188 13.21875 -8.460938 13.21875 -11.609375 C 13.21875 -12.679688 13.21875 -13.988281 13.21875 -15.53125 C 13.21875 -17.070312 13.21875 -18.644531 13.21875 -20.25 C 13.21875 -21.851562 13.21875 -23.253906 13.21875 -24.453125 Z M 13.21875 -24.453125 "/></g></g></g><g fill="#e6e6dd" fill-opacity="1"><g transform="translate(88.376147, 258.309957)"><g><path d="M 25.390625 -11.984375 C 25.390625 -14.378906 24.820312 -16.503906 23.6875 -18.359375 C 22.5625 -20.210938 21.097656 -21.972656 19.296875 -23.640625 C 17.503906 -25.304688 15.617188 -26.988281 13.640625 -28.6875 C 11.660156 -30.394531 9.785156 -32.253906 8.015625 -34.265625 C 6.253906 -36.273438 4.804688 -38.570312 3.671875 -41.15625 C 2.546875 -43.738281 1.984375 -46.726562 1.984375 -50.125 C 1.984375 -53.207031 2.675781 -55.988281 4.0625 -58.46875 C 5.445312 -60.957031 7.316406 -62.941406 9.671875 -64.421875 C 12.035156 -65.898438 14.601562 -66.640625 17.375 -66.640625 C 18.945312 -66.640625 20.375 -66.59375 21.65625 -66.5 C 22.945312 -66.40625 24.191406 -66.359375 25.390625 -66.359375 C 26.773438 -66.359375 27.75 -66.375 28.3125 -66.40625 C 28.882812 -66.4375 29.609375 -66.515625 30.484375 -66.640625 L 30.484375 -44.734375 L 29.359375 -44.734375 C 28.785156 -49.960938 27.867188 -53.894531 26.609375 -56.53125 C 25.359375 -59.175781 24.023438 -60.953125 22.609375 -61.859375 C 21.191406 -62.773438 19.914062 -63.234375 18.78125 -63.234375 C 16.394531 -63.234375 14.363281 -62.414062 12.6875 -60.78125 C 11.019531 -59.144531 10.1875 -56.847656 10.1875 -53.890625 C 10.1875 -51.503906 10.753906 -49.378906 11.890625 -47.515625 C 13.023438 -45.660156 14.488281 -43.914062 16.28125 -42.28125 C 18.070312 -40.644531 19.988281 -39.007812 22.03125 -37.375 C 24.082031 -35.738281 26.003906 -33.945312 27.796875 -32 C 29.585938 -30.050781 31.050781 -27.816406 32.1875 -25.296875 C 33.320312 -22.773438 33.890625 -19.816406 33.890625 -16.421875 C 33.890625 -13.460938 33.273438 -10.675781 32.046875 -8.0625 C 30.816406 -5.457031 29.128906 -3.351562 26.984375 -1.75 C 24.847656 -0.144531 22.398438 0.65625 19.640625 0.65625 C 17.679688 0.65625 16.117188 0.546875 14.953125 0.328125 C 13.796875 0.109375 12.710938 -0.09375 11.703125 -0.28125 C 10.691406 -0.46875 9.335938 -0.5625 7.640625 -0.5625 C 6.390625 -0.5625 5.289062 -0.375 4.34375 0 C 3.394531 0.375 2.921875 0.59375 2.921875 0.65625 L 2.828125 -23.6875 L 3.96875 -23.6875 C 3.96875 -21.425781 4.28125 -19.082031 4.90625 -16.65625 C 5.539062 -14.238281 6.453125 -11.957031 7.640625 -9.8125 C 8.835938 -7.675781 10.300781 -5.945312 12.03125 -4.625 C 13.757812 -3.300781 15.695312 -2.640625 17.84375 -2.640625 C 20.039062 -2.640625 21.847656 -3.519531 23.265625 -5.28125 C 24.679688 -7.039062 25.390625 -9.273438 25.390625 -11.984375 Z M 25.390625 -11.984375 "/></g></g></g><g fill="#e6e6dd" fill-opacity="1"><g transform="translate(118.393279, 258.309957)"><g><path d="M 3.390625 -33.21875 C 3.390625 -40.019531 4.238281 -45.921875 5.9375 -50.921875 C 7.644531 -55.921875 10.054688 -59.789062 13.171875 -62.53125 C 16.285156 -65.269531 19.914062 -66.640625 24.0625 -66.640625 C 25.320312 -66.640625 26.296875 -66.59375 26.984375 -66.5 C 27.679688 -66.40625 28.597656 -66.359375 29.734375 -66.359375 C 31.117188 -66.359375 32.078125 -66.375 32.609375 -66.40625 C 33.148438 -66.4375 33.859375 -66.515625 34.734375 -66.640625 L 34.734375 -44.734375 L 33.609375 -44.734375 C 33.609375 -47.566406 33.304688 -50.414062 32.703125 -53.28125 C 32.109375 -56.144531 31.242188 -58.519531 30.109375 -60.40625 C 28.972656 -62.289062 27.585938 -63.234375 25.953125 -63.234375 C 23.566406 -63.234375 21.554688 -61.847656 19.921875 -59.078125 C 18.285156 -56.316406 17.039062 -52.65625 16.1875 -48.09375 C 15.332031 -43.53125 14.90625 -38.507812 14.90625 -33.03125 C 14.90625 -29.257812 15.046875 -25.5625 15.328125 -21.9375 C 15.617188 -18.320312 16.109375 -15.066406 16.796875 -12.171875 C 17.492188 -9.273438 18.5 -6.960938 19.8125 -5.234375 C 21.132812 -3.503906 22.835938 -2.640625 24.921875 -2.640625 C 27.691406 -2.640625 29.800781 -3.785156 31.25 -6.078125 C 32.695312 -8.378906 33.578125 -11.429688 33.890625 -15.234375 C 34.203125 -19.046875 33.976562 -23.25 33.21875 -27.84375 L 36.53125 -27.84375 C 36.53125 -25.644531 36.5 -23.253906 36.4375 -20.671875 C 36.375 -18.085938 36.164062 -15.535156 35.8125 -13.015625 C 35.46875 -10.503906 34.867188 -8.207031 34.015625 -6.125 C 33.171875 -4.050781 31.960938 -2.398438 30.390625 -1.171875 C 28.816406 0.046875 26.804688 0.65625 24.359375 0.65625 C 20.078125 0.65625 16.363281 -0.707031 13.21875 -3.4375 C 10.070312 -6.175781 7.644531 -10.078125 5.9375 -15.140625 C 4.238281 -20.210938 3.390625 -26.238281 3.390625 -33.21875 Z M 3.390625 -33.21875 "/></g></g></g><g fill="#e6e6dd" fill-opacity="1"><g transform="translate(151.714218, 258.309957)"><g><path d="M 4.34375 -54.5625 C 4.34375 -57.707031 4.21875 -60.035156 3.96875 -61.546875 C 3.71875 -63.054688 3.148438 -64.566406 2.265625 -66.078125 L 34.078125 -66.078125 L 34.078125 -44.734375 L 32.9375 -44.734375 C 32.9375 -48.015625 32.445312 -51.003906 31.46875 -53.703125 C 30.5 -56.410156 28.988281 -58.582031 26.9375 -60.21875 C 24.894531 -61.851562 22.269531 -62.671875 19.0625 -62.671875 L 15.484375 -62.671875 L 15.484375 -39.078125 L 17.078125 -39.078125 C 18.398438 -39.078125 19.785156 -39.484375 21.234375 -40.296875 C 22.679688 -41.117188 23.90625 -42.410156 24.90625 -44.171875 C 25.914062 -45.929688 26.421875 -48.195312 26.421875 -50.96875 L 27.5625 -50.96875 L 27.5625 -23.875 L 26.421875 -23.875 C 26.421875 -26.707031 25.914062 -28.988281 24.90625 -30.71875 C 23.90625 -32.445312 22.679688 -33.722656 21.234375 -34.546875 C 19.785156 -35.367188 18.398438 -35.78125 17.078125 -35.78125 L 15.484375 -35.78125 L 15.484375 -3.390625 C 19.890625 -3.265625 23.238281 -3.800781 25.53125 -5 C 27.832031 -6.195312 29.5 -8.144531 30.53125 -10.84375 C 31.570312 -13.550781 32.375 -17.046875 32.9375 -21.328125 L 34.078125 -21.328125 L 34.078125 0 L 2.265625 0 C 3.148438 -1.507812 3.71875 -3.019531 3.96875 -4.53125 C 4.21875 -6.039062 4.34375 -8.367188 4.34375 -11.515625 Z M 4.34375 -54.5625 "/></g></g></g><g fill="#e6e6dd" fill-opacity="1"><g transform="translate(184.091216, 258.309957)"><g><path d="M 2.171875 0 C 3.054688 -1.507812 3.640625 -3.035156 3.921875 -4.578125 C 4.203125 -6.117188 4.34375 -8.460938 4.34375 -11.609375 L 4.34375 -54.5625 C 4.34375 -56.695312 4.28125 -58.425781 4.15625 -59.75 C 4.03125 -61.070312 3.820312 -62.203125 3.53125 -63.140625 C 3.25 -64.085938 2.796875 -65.066406 2.171875 -66.078125 L 16.046875 -66.078125 L 31.90625 -17.28125 C 31.90625 -17.28125 31.90625 -18.066406 31.90625 -19.640625 C 31.90625 -21.210938 31.90625 -23.285156 31.90625 -25.859375 C 31.90625 -28.441406 31.890625 -31.242188 31.859375 -34.265625 C 31.828125 -37.285156 31.8125 -40.257812 31.8125 -43.1875 C 31.8125 -46.113281 31.8125 -48.707031 31.8125 -50.96875 C 31.8125 -53.238281 31.8125 -54.90625 31.8125 -55.96875 C 31.8125 -58.113281 31.765625 -59.71875 31.671875 -60.78125 C 31.578125 -61.851562 31.367188 -62.75 31.046875 -63.46875 C 30.734375 -64.195312 30.296875 -65.066406 29.734375 -66.078125 L 37.9375 -66.078125 C 37.125 -64.566406 36.5625 -63.039062 36.25 -61.5 C 35.9375 -59.957031 35.78125 -57.613281 35.78125 -54.46875 C 35.78125 -53.582031 35.78125 -51.925781 35.78125 -49.5 C 35.78125 -47.082031 35.757812 -44.222656 35.71875 -40.921875 C 35.6875 -37.617188 35.671875 -34.109375 35.671875 -30.390625 C 35.671875 -26.679688 35.671875 -23.03125 35.671875 -19.4375 C 35.671875 -15.851562 35.65625 -12.597656 35.625 -9.671875 C 35.59375 -6.742188 35.578125 -4.398438 35.578125 -2.640625 C 35.578125 -0.878906 35.578125 0 35.578125 0 L 25.390625 0 L 8.125 -53.140625 C 8.125 -53.140625 8.125 -52.273438 8.125 -50.546875 C 8.125 -48.816406 8.140625 -46.566406 8.171875 -43.796875 C 8.203125 -41.023438 8.21875 -38.003906 8.21875 -34.734375 C 8.21875 -31.460938 8.234375 -28.269531 8.265625 -25.15625 C 8.296875 -22.039062 8.3125 -19.269531 8.3125 -16.84375 C 8.3125 -14.425781 8.3125 -12.679688 8.3125 -11.609375 C 8.3125 -8.460938 8.453125 -6.117188 8.734375 -4.578125 C 9.015625 -3.035156 9.566406 -1.507812 10.390625 0 Z M 2.171875 0 "/></g></g></g><g fill="#e6e6dd" fill-opacity="1"><g transform="translate(219.394441, 258.309957)"><g><path d="M 4.34375 -54.5625 C 4.34375 -57.707031 4.21875 -60.035156 3.96875 -61.546875 C 3.71875 -63.054688 3.148438 -64.566406 2.265625 -66.078125 L 34.078125 -66.078125 L 34.078125 -44.734375 L 32.9375 -44.734375 C 32.9375 -48.015625 32.445312 -51.003906 31.46875 -53.703125 C 30.5 -56.410156 28.988281 -58.582031 26.9375 -60.21875 C 24.894531 -61.851562 22.269531 -62.671875 19.0625 -62.671875 L 15.484375 -62.671875 L 15.484375 -39.078125 L 17.078125 -39.078125 C 18.398438 -39.078125 19.785156 -39.484375 21.234375 -40.296875 C 22.679688 -41.117188 23.90625 -42.410156 24.90625 -44.171875 C 25.914062 -45.929688 26.421875 -48.195312 26.421875 -50.96875 L 27.5625 -50.96875 L 27.5625 -23.875 L 26.421875 -23.875 C 26.421875 -26.707031 25.914062 -28.988281 24.90625 -30.71875 C 23.90625 -32.445312 22.679688 -33.722656 21.234375 -34.546875 C 19.785156 -35.367188 18.398438 -35.78125 17.078125 -35.78125 L 15.484375 -35.78125 L 15.484375 -3.390625 C 19.890625 -3.265625 23.238281 -3.800781 25.53125 -5 C 27.832031 -6.195312 29.5 -8.144531 30.53125 -10.84375 C 31.570312 -13.550781 32.375 -17.046875 32.9375 -21.328125 L 34.078125 -21.328125 L 34.078125 0 L 2.265625 0 C 3.148438 -1.507812 3.71875 -3.019531 3.96875 -4.53125 C 4.21875 -6.039062 4.34375 -8.367188 4.34375 -11.515625 Z M 4.34375 -54.5625 "/></g></g></g><g fill="#e6e6dd" fill-opacity="1"><g transform="translate(251.771434, 258.309957)"><g><path d="M 25.390625 -11.984375 C 25.390625 -14.378906 24.820312 -16.503906 23.6875 -18.359375 C 22.5625 -20.210938 21.097656 -21.972656 19.296875 -23.640625 C 17.503906 -25.304688 15.617188 -26.988281 13.640625 -28.6875 C 11.660156 -30.394531 9.785156 -32.253906 8.015625 -34.265625 C 6.253906 -36.273438 4.804688 -38.570312 3.671875 -41.15625 C 2.546875 -43.738281 1.984375 -46.726562 1.984375 -50.125 C 1.984375 -53.207031 2.675781 -55.988281 4.0625 -58.46875 C 5.445312 -60.957031 7.316406 -62.941406 9.671875 -64.421875 C 12.035156 -65.898438 14.601562 -66.640625 17.375 -66.640625 C 18.945312 -66.640625 20.375 -66.59375 21.65625 -66.5 C 22.945312 -66.40625 24.191406 -66.359375 25.390625 -66.359375 C 26.773438 -66.359375 27.75 -66.375 28.3125 -66.40625 C 28.882812 -66.4375 29.609375 -66.515625 30.484375 -66.640625 L 30.484375 -44.734375 L 29.359375 -44.734375 C 28.785156 -49.960938 27.867188 -53.894531 26.609375 -56.53125 C 25.359375 -59.175781 24.023438 -60.953125 22.609375 -61.859375 C 21.191406 -62.773438 19.914062 -63.234375 18.78125 -63.234375 C 16.394531 -63.234375 14.363281 -62.414062 12.6875 -60.78125 C 11.019531 -59.144531 10.1875 -56.847656 10.1875 -53.890625 C 10.1875 -51.503906 10.753906 -49.378906 11.890625 -47.515625 C 13.023438 -45.660156 14.488281 -43.914062 16.28125 -42.28125 C 18.070312 -40.644531 19.988281 -39.007812 22.03125 -37.375 C 24.082031 -35.738281 26.003906 -33.945312 27.796875 -32 C 29.585938 -30.050781 31.050781 -27.816406 32.1875 -25.296875 C 33.320312 -22.773438 33.890625 -19.816406 33.890625 -16.421875 C 33.890625 -13.460938 33.273438 -10.675781 32.046875 -8.0625 C 30.816406 -5.457031 29.128906 -3.351562 26.984375 -1.75 C 24.847656 -0.144531 22.398438 0.65625 19.640625 0.65625 C 17.679688 0.65625 16.117188 0.546875 14.953125 0.328125 C 13.796875 0.109375 12.710938 -0.09375 11.703125 -0.28125 C 10.691406 -0.46875 9.335938 -0.5625 7.640625 -0.5625 C 6.390625 -0.5625 5.289062 -0.375 4.34375 0 C 3.394531 0.375 2.921875 0.59375 2.921875 0.65625 L 2.828125 -23.6875 L 3.96875 -23.6875 C 3.96875 -21.425781 4.28125 -19.082031 4.90625 -16.65625 C 5.539062 -14.238281 6.453125 -11.957031 7.640625 -9.8125 C 8.835938 -7.675781 10.300781 -5.945312 12.03125 -4.625 C 13.757812 -3.300781 15.695312 -2.640625 17.84375 -2.640625 C 20.039062 -2.640625 21.847656 -3.519531 23.265625 -5.28125 C 24.679688 -7.039062 25.390625 -9.273438 25.390625 -11.984375 Z M 25.390625 -11.984375 "/></g></g></g></svg>